HIERARCHY
ROOT Hips
{
	OFFSET -3.958830 18.904000 13.208200
	CHANNELS 6 Xposition Yposition Zposition Zrotation Yrotation Xrotation 
	JOINT LHipJoint
	{
		OFFSET 0.000000 0.000000 0.000000
		CHANNELS 3 Zrotation Yrotation Xrotation
		JOINT LeftUpLeg
		{
			OFFSET 1.800000 -1.400000 0.085000
			CHANNELS 3 Zrotation Yrotation Xrotation
			JOINT LeftLeg
			{
				OFFSET 2.215000 -6.000000 0.000000
				CHANNELS 3 Zrotation Yrotation Xrotation
				JOINT LeftFoot
				{
					OFFSET 2.500000 -6.900000 0.000000
					CHANNELS 3 Zrotation Yrotation Xrotation
					JOINT LeftToeBase
					{
						OFFSET 0.200000 -0.500000 1.950000
						CHANNELS 3 Zrotation Yrotation Xrotation
						End Site
						{
							OFFSET 0.000000 0.000000 0.000000
						}
					}
				}
			}
		}
	}
	JOINT RHipJoint
	{
		OFFSET 0.000000 0.000000 0.000000
		CHANNELS 3 Zrotation Yrotation Xrotation
		JOINT RightUpLeg
		{
			OFFSET -1.800000 -1.400000 0.085000
			CHANNELS 3 Zrotation Yrotation Xrotation
			JOINT RightLeg
			{
				OFFSET -2.215000 -6.000000 0.000000
				CHANNELS 3 Zrotation Yrotation Xrotation
				JOINT RightFoot
				{
					OFFSET -2.500000 -6.900000 0.000000
					CHANNELS 3 Zrotation Yrotation Xrotation
					JOINT RightToeBase
					{
						OFFSET -0.200000 -0.500000 1.950000
						CHANNELS 3 Zrotation Yrotation Xrotation
						End Site
						{
							OFFSET 0.000000 0.000000 0.000000
						}
					}
				}
			}
		}
	}
	JOINT LowerBack
	{
		OFFSET 0.000000 0.000000 0.000000
		CHANNELS 3 Zrotation Yrotation Xrotation
		JOINT Spine
		{
			OFFSET -0.087000 1.940000 -0.288900
			CHANNELS 3 Zrotation Yrotation Xrotation
			JOINT Spine1
			{
				OFFSET 0.000000 1.950000 0.060000
				CHANNELS 3 Zrotation Yrotation Xrotation
				JOINT Neck
				{
					OFFSET 0.000000 0.000000 0.000000
					CHANNELS 3 Zrotation Yrotation Xrotation
					JOINT Neck1
					{
						OFFSET 0.000000 1.600000 0.340000
						CHANNELS 3 Zrotation Yrotation Xrotation
						JOINT Head
						{
							OFFSET 0.000000 1.667000 -0.240000
							CHANNELS 3 Zrotation Yrotation Xrotation
							End Site
							{
								OFFSET 0.000000 0.000000 0.000000
							}
						}
					}
				}
				JOINT LeftShoulder
				{
					OFFSET 0.000000 0.000000 0.000000
					CHANNELS 3 Zrotation Yrotation Xrotation
					JOINT LeftArm
					{
						OFFSET 2.700000 1.550000 -0.730000
						CHANNELS 3 Zrotation Yrotation Xrotation
						JOINT LeftForeArm
						{
							OFFSET 5.450000 0.000000 0.000000
							CHANNELS 3 Zrotation Yrotation Xrotation
							JOINT LeftHand
							{
								OFFSET 3.450000 0.000000 0.000000
								CHANNELS 3 Zrotation Yrotation Xrotation
								JOINT LeftHandIndex1
								{
									OFFSET 0.750000 0.000000 0.000000
									CHANNELS 3 Zrotation Yrotation Xrotation
									End Site
									{
										OFFSET 0.000000 0.000000 0.000000
									}
								}
							}
						}
					}
				}
				JOINT RightShoulder
				{
					OFFSET 0.000000 0.000000 0.000000
					CHANNELS 3 Zrotation Yrotation Xrotation
					JOINT RightArm
					{
						OFFSET -2.700000 1.550000 -0.730000
						CHANNELS 3 Zrotation Yrotation Xrotation
						JOINT RightForeArm
						{
							OFFSET -5.450000 0.000000 0.000000
							CHANNELS 3 Zrotation Yrotation Xrotation
							JOINT RightHand
							{
								OFFSET -3.450000 0.000000 0.000000
								CHANNELS 3 Zrotation Yrotation Xrotation
								JOINT RightHandIndex1
								{
									OFFSET -0.750000 0.000000 0.000000
									CHANNELS 3 Zrotation Yrotation Xrotation
									End Site
									{
										OFFSET 0.000000 0.000000 0.000000
									}
								}
							}
						}
					}
				}
			}
		}
	}
}
MOTION
Frames: 7
Frame Time: 0.016667
-6.006830 16.651360 -8.512900 -61.488407 -79.116778 71.134197 -15.165747 11.220354 5.375268 0.737551 -6.805901 -50.890673 -5.929086 2.751327 1.234111 -1.337830 2.917151 3.355450 -0.669590 -1.068340 -0.702090 18.598956 -10.089887 2.632855 6.419330 -2.495665 -3.723489 7.915918 -6.698321 14.408040 0.241985 -4.632031 3.129307 -0.016980 1.057730 0.333840 -3.287830 1.008926 -8.331607 1.608274 9.567179 9.042996 3.122739 9.963916 -14.269712 -3.199983 -4.181547 -4.033712 -8.008977 3.216445 32.550802 8.421700 -5.963210 4.929970 -12.645042 17.706064 -3.581569 -62.718574 6.338561 -5.497388 -11.056381 3.583821 -1.090882 -3.942481 2.010992 0.964390 0.421380 0.179910 0.786780 18.145589 -9.072824 0.004383 67.026165 -6.903279 -11.032101 13.626617 12.157690 -0.067348 2.880699 -0.616848 -1.336770 0.397990 -0.026720 0.392770 
-6.155940 16.628280 -8.495620 -59.404435 -79.165139 69.544861 -15.134866 11.250838 5.322643 0.434219 -6.900202 -50.288744 -6.096960 2.819134 1.846586 -1.363287 3.002989 3.334661 -0.731570 -1.174130 -0.746230 18.626417 -10.125357 2.633689 6.633005 -2.630335 -3.240684 6.728703 -6.503343 14.602034 0.266253 -4.645902 3.121453 -0.054350 1.121500 0.359740 -3.307823 1.010446 -8.254030 1.492488 9.424076 8.469854 2.688463 9.720340 -14.218016 -3.223173 -4.466625 -4.071322 -8.391766 3.168295 31.571691 8.390370 -6.491810 5.503020 -12.063167 18.021996 -3.624655 -62.714052 6.366603 -5.310362 -10.972424 4.248103 -1.128768 -4.000501 2.011247 0.963490 0.448260 0.149520 0.792140 17.561522 -9.381530 0.195853 67.454060 -7.343229 -11.282152 14.747076 12.666340 0.036823 2.869561 -0.596589 -1.372220 0.419490 0.034090 0.399490 
-6.306310 16.610530 -8.477250 -59.557883 -79.453968 70.314972 -15.110948 11.288273 5.261235 0.307864 -6.891687 -49.803448 -6.268947 2.931980 2.535798 -1.363813 3.108996 3.318359 -0.791210 -1.269990 -0.788940 18.654447 -10.140388 2.606480 6.717831 -2.604654 -3.064017 5.566351 -6.315718 15.162376 0.291492 -4.671385 3.121662 -0.094550 1.192280 0.387540 -3.356571 1.170208 -8.141160 1.370086 9.536556 7.599389 2.014295 9.671274 -13.980280 -3.070836 -4.452985 -3.984994 -8.088065 2.806223 30.205197 7.263330 -6.483480 6.555810 -11.597744 18.196460 -3.732588 -62.416102 6.108467 -5.010846 -10.924122 4.915861 -1.148885 -4.075398 2.024854 0.931640 0.493400 0.108460 0.805960 16.702563 -9.663235 0.226808 68.864425 -7.249790 -11.213722 14.332331 12.000469 -0.028671 2.867429 -0.578223 -1.392430 0.441020 0.090010 0.408910 
-6.457360 16.606110 -8.455780 -58.716245 -79.981718 70.075606 -15.096620 11.308017 5.211354 -0.225467 -7.073166 -49.164124 -6.264400 2.862195 2.329956 -1.345271 3.108941 3.346019 -0.822540 -1.320350 -0.814270 18.672698 -10.166580 2.567879 6.613586 -2.620382 -2.798677 4.140105 -6.008521 15.403212 0.301961 -4.669487 3.128157 -0.125590 1.241770 0.412970 -3.356893 1.277862 -8.027031 0.757196 9.658009 6.755655 1.453908 9.598283 -13.670375 -2.817524 -4.347505 -4.018147 -7.650636 2.626409 29.078734 6.353610 -6.203750 7.446790 -11.090824 18.067297 -3.749474 -62.455136 5.682122 -4.719191 -10.774323 5.423923 -1.131653 -4.126778 2.058102 0.892320 0.525380 0.082680 0.825080 15.714037 -9.711263 0.364122 70.504498 -7.164468 -11.171627 13.841654 11.339605 -0.111801 2.876120 -0.578449 -1.386700 0.449500 0.118580 0.424380 
-6.610780 16.625050 -8.425830 -55.330164 -80.399848 67.238128 -15.076022 11.310928 5.171865 -1.059509 -7.388240 -48.269152 -6.295602 2.712690 1.804072 -1.354465 3.061160 3.377936 -0.833060 -1.343810 -0.814600 18.688729 -10.225523 2.538856 6.364744 -2.573532 -2.640067 3.012122 -5.766409 15.711446 0.303109 -4.666961 3.127363 -0.137840 1.255230 0.426140 -3.309016 1.259725 -7.937565 0.031516 9.711860 6.275820 1.145389 9.520754 -13.774363 -2.631795 -4.366110 -3.870830 -7.575572 2.283954 28.339576 5.626890 -6.116250 7.321650 -11.275112 18.269341 -4.046658 -62.002188 5.013999 -4.180501 -10.663195 6.152157 -1.113354 -4.153074 2.074496 0.881430 0.534330 0.076570 0.829980 15.558763 -9.984340 0.350845 71.154721 -7.333458 -11.124659 13.257987 10.802139 -0.168336 2.878479 -0.562764 -1.385630 0.458050 0.135640 0.423840 
-6.763850 16.661270 -8.389190 -52.400804 -80.870909 64.686633 -15.047260 11.357303 5.140408 -1.842756 -7.616194 -47.122181 -6.280192 2.571327 1.343098 -1.354286 3.002726 3.409741 -0.845290 -1.371310 -0.810990 18.695109 -10.319693 2.520966 6.070057 -2.370858 -2.712173 1.766094 -5.528873 16.771702 0.289427 -4.666134 3.125488 -0.165350 1.253520 0.433380 -3.251042 1.316067 -7.887628 -0.622365 9.860971 6.075032 0.728970 9.548423 -14.275821 -2.345725 -4.278233 -3.949380 -7.417316 2.173265 28.743272 5.352930 -5.983610 7.351310 -11.539016 18.343277 -4.198746 -61.880109 4.823864 -4.102684 -9.850914 5.785430 -1.061032 -4.156959 2.067593 0.894430 0.523370 0.089200 0.833490 15.258051 -10.076344 0.480062 71.906647 -7.583309 -11.038815 12.541354 10.024131 -0.175323 2.889307 -0.524976 -1.381750 0.467510 0.150420 0.419040 
-6.918830 16.697400 -8.348840 -49.121259 -81.191405 61.732921 -15.011063 11.394506 5.103432 -2.831568 -7.898158 -46.163122 -5.584877 2.477232 1.638957 -1.370951 2.919946 3.448731 -0.853140 -1.395450 -0.809530 18.714205 -10.421408 2.502882 6.003340 -2.101993 -2.990992 0.207668 -5.179609 18.285141 0.284692 -4.684649 3.111531 -0.180780 1.262490 0.440360 -3.242727 1.329340 -7.815460 -0.845553 9.843642 5.913221 0.042859 9.437119 -14.459815 -2.069803 -4.292875 -3.887615 -7.358156 2.065025 28.474697 5.386510 -6.115920 7.118470 -11.344538 18.775760 -4.490030 -62.105156 4.214603 -3.816935 -9.456187 5.688954 -1.037868 -4.168159 2.071532 0.898560 0.517580 0.089800 0.838680 14.470888 -10.590283 0.472436 73.102696 -7.687723 -10.958506 11.896619 9.202445 -0.202163 2.904174 -0.493634 -1.383510 0.479620 0.166210 0.418620 
